<svg width="28" height="25" viewBox="0 0 28 25" fill="none" xmlns="http://www.w3.org/2000/svg">
<path d="M10.71 0.0605469C12.3506 0.0605469 13.71 1.41992 13.71 3.06055V20.6855C13.71 22.5605 12.1631 24.0605 10.335 24.0605C8.83496 24.0605 7.56934 23.123 7.14746 21.7637C6.95996 21.8105 6.77246 21.8105 6.58496 21.8105C4.70996 21.8105 3.20996 20.3105 3.20996 18.4355C3.20996 18.248 3.20996 18.0137 3.25684 17.7793C1.89746 17.2168 0.959961 15.9043 0.959961 14.3105C0.959961 12.9512 1.70996 11.7324 2.83496 11.0762C2.60059 10.6074 2.45996 10.0449 2.45996 9.43555C2.45996 7.88867 3.39746 6.5293 4.75684 5.9668C4.70996 5.7793 4.70996 5.54492 4.70996 5.31055C4.70996 3.66992 6.02246 2.31055 7.70996 2.31055C7.70996 2.31055 7.75684 2.35742 7.80371 2.35742C8.13184 1.04492 9.30371 0.0605469 10.71 0.0605469ZM27.96 14.3105C27.96 15.9043 26.9756 17.2168 25.6162 17.7793C25.6631 18.0137 25.71 18.248 25.71 18.4355C25.71 20.3105 24.1631 21.8105 22.335 21.8105C22.1006 21.8105 21.9131 21.8105 21.7725 21.7637C21.3037 23.123 20.0381 24.0605 18.585 24.0605C16.71 24.0605 15.21 22.5605 15.21 20.6855V3.06055C15.21 1.41992 16.5225 0.0605469 18.21 0.0605469C19.5693 0.0605469 20.7412 1.04492 21.0693 2.35742C21.1162 2.35742 21.1631 2.31055 21.21 2.31055C22.8506 2.31055 24.21 3.66992 24.21 5.31055C24.21 5.54492 24.1631 5.7793 24.1162 5.9668C25.4756 6.5293 26.46 7.88867 26.46 9.43555C26.46 10.0449 26.2725 10.6074 26.0381 11.0762C27.1631 11.7324 27.96 12.9512 27.96 14.3105Z" fill="#0463FA"/>
</svg>
