<svg width="15" height="17" viewBox="0 0 15 17" fill="none" xmlns="http://www.w3.org/2000/svg">
<path d="M7.5 8.58984C5.28125 8.58984 3.5 6.80859 3.5 4.58984C3.5 2.40234 5.28125 0.589844 7.5 0.589844C9.6875 0.589844 11.5 2.40234 11.5 4.58984C11.5 6.80859 9.6875 8.58984 7.5 8.58984ZM3.75 13.8398C3.75 13.4336 4.0625 13.0898 4.5 13.0898C4.90625 13.0898 5.25 13.4336 5.25 13.8398C5.25 14.2773 4.90625 14.5898 4.5 14.5898C4.0625 14.5898 3.75 14.2773 3.75 13.8398ZM10.5 9.62109C12.7188 9.74609 14.5 11.5586 14.5 13.8086V15.2148C14.5 15.9648 13.8438 16.5898 13.0938 16.5898H1.875C1.125 16.5898 0.5 15.9648 0.5 15.2148V13.8086C0.5 11.7148 2 9.99609 4 9.68359V12.1836C3.28125 12.4023 2.75 13.0586 2.75 13.8711C2.75 14.8086 3.53125 15.6211 4.5 15.6211C5.46875 15.6211 6.25 14.8086 6.25 13.8711C6.25 13.0586 5.71875 12.4023 5 12.1836V9.65234C5.21875 9.68359 5.46875 9.71484 5.6875 9.80859C6.25 9.99609 6.875 10.1211 7.5 10.1211C8.125 10.1211 8.71875 9.99609 9.28125 9.80859C9.34375 9.77734 9.40625 9.77734 9.5 9.74609V11.1523C8.34375 11.4023 7.5 12.4023 7.5 13.5898V14.9648C7.5 15.2148 7.6875 15.4336 7.90625 15.4648L8.90625 15.5898C9.03125 15.6211 9.15625 15.5273 9.1875 15.4023L9.28125 14.9023C9.3125 14.7773 9.21875 14.6523 9.09375 14.6211L8.5 14.4961V13.6523C8.5 11.5586 11.5 11.6523 11.5 13.5898V14.4961L10.875 14.6211C10.75 14.6523 10.6562 14.7773 10.6875 14.9023L10.7812 15.4023C10.8125 15.5273 10.9375 15.6211 11.0625 15.5898L12.0938 15.4023C12.3125 15.3398 12.5 15.1523 12.5 14.9023V13.5898C12.5 12.4023 11.625 11.3711 10.5 11.1523V9.62109Z" fill="#0463FA"/>
</svg>
