<svg width="17" height="15" viewBox="0 0 17 15" fill="none" xmlns="http://www.w3.org/2000/svg">
<path d="M8.5 0.589844C12.9062 0.589844 16.5 3.52734 16.5 7.08984C16.5 10.6836 12.9062 13.5898 8.5 13.5898C8.46875 13.5898 8.46875 13.5898 8.46875 13.5898C7.28125 13.5898 6.15625 13.4023 5.125 12.9961C4.375 13.6211 2.8125 14.5898 0.75 14.5898C0.59375 14.5898 0.5 14.4961 0.5 14.3398C0.5 14.2773 0.5 14.2148 0.5625 14.1836C0.5625 14.1523 1.875 12.7773 2.28125 11.1836C1.15625 10.0586 0.5 8.65234 0.5 7.08984C0.5 3.52734 4.0625 0.589844 8.5 0.589844ZM11.5 7.83984V6.33984C11.5 6.21484 11.375 6.08984 11.25 6.08984H9.5V4.33984C9.5 4.21484 9.375 4.08984 9.25 4.08984H7.75C7.59375 4.08984 7.5 4.21484 7.5 4.33984V6.08984H5.75C5.59375 6.08984 5.5 6.21484 5.5 6.33984V7.83984C5.5 7.99609 5.59375 8.08984 5.75 8.08984H7.5V9.83984C7.5 9.99609 7.59375 10.0898 7.75 10.0898H9.25C9.375 10.0898 9.5 9.99609 9.5 9.83984V8.08984H11.25C11.375 8.08984 11.5 7.99609 11.5 7.83984Z" fill="#0463FA"/>
</svg>
