<svg width="25" height="25" viewBox="0 0 25 25" fill="none" xmlns="http://www.w3.org/2000/svg">
<path d="M23.7397 18.9541L24.396 20.3135C24.5835 20.6885 24.4429 21.1104 24.0679 21.2979L20.9741 22.8447C20.2241 23.2197 19.3335 22.8916 18.9585 22.1416L16.0054 15.8604H9.48975C8.73975 15.8604 8.0835 15.3447 7.98975 14.5947C6.396 3.48535 6.48975 4.18848 6.48975 3.86035C6.48975 2.17285 7.896 0.813477 9.63037 0.907227C11.1772 0.954102 12.4429 2.21973 12.4429 3.81348C12.4897 5.36035 11.3647 6.62598 9.91162 6.86035L10.146 8.40723H16.2397C16.6147 8.40723 16.9897 8.73535 16.9897 9.15723V10.6572C16.9897 11.0322 16.6147 11.4072 16.2397 11.4072H10.5679L10.7554 12.9072H16.9897C17.5522 12.9072 18.0679 13.2354 18.3022 13.751L21.021 19.4697L22.7085 18.626C23.0835 18.4385 23.5522 18.5791 23.7397 18.9541ZM15.0679 17.3604L16.2866 19.9385C14.9741 22.8447 12.0679 24.8604 8.73975 24.8604C4.146 24.8604 0.489746 21.2041 0.489746 16.6104C0.489746 13.1416 2.59912 10.1885 5.646 8.96973C5.78662 9.81348 5.92725 10.8447 6.11475 12.0635C4.521 13.001 3.48975 14.6885 3.48975 16.6104C3.48975 19.5166 5.8335 21.8604 8.73975 21.8604C11.3647 21.8604 13.5679 19.9385 13.896 17.3604H15.0679Z" fill="#0463FA"/>
</svg>
