<svg width="17" height="15" viewBox="0 0 17 15" fill="none" xmlns="http://www.w3.org/2000/svg">
<path d="M8.5 0.589844C12.9062 0.589844 16.5 4.18359 16.5 8.58984V10.0898C16.5 10.4961 16.25 10.8398 15.9375 10.9961L15.4688 11.2148C15.4062 13.0898 13.875 14.5898 12 14.5898H11.25C10.8125 14.5898 10.5 14.2773 10.5 13.8398V8.33984C10.5 7.93359 10.8125 7.58984 11.25 7.58984H12C12.9688 7.58984 13.8438 7.99609 14.5 8.65234V8.58984C14.5 5.30859 11.7812 2.58984 8.5 2.58984C5.1875 2.58984 2.5 5.30859 2.5 8.58984V8.65234C3.125 7.99609 4 7.58984 5 7.58984H5.75C6.15625 7.58984 6.5 7.93359 6.5 8.33984V13.8398C6.5 14.2773 6.15625 14.5898 5.75 14.5898H5C3.09375 14.5898 1.5625 13.0898 1.5 11.2148L1.03125 10.9961C0.71875 10.8398 0.5 10.4961 0.5 10.0898V8.58984C0.5 4.18359 4.0625 0.589844 8.5 0.589844Z" fill="#0463FA"/>
</svg>
