<svg width="27" height="25" viewBox="0 0 27 25" fill="none" xmlns="http://www.w3.org/2000/svg">
<path d="M16.4897 11.498L17.521 13.5605H22.6304L14.0522 22.3262C13.7241 22.6543 13.2085 22.6543 12.8804 22.3262L4.30225 13.5605H8.7085L10.1147 10.2324L12.7866 16.1387C13.0679 16.7012 13.8647 16.748 14.146 16.1855L16.4897 11.498ZM23.6616 3.5293C25.9585 5.87305 26.0522 9.57617 24.0366 12.0605H18.4585L17.146 9.48242C16.8647 8.91992 16.0679 8.91992 15.7866 9.48242L13.4897 14.0762L10.771 8.0293C10.4897 7.41992 9.646 7.41992 9.41162 8.0293L7.72412 12.0605H2.94287C0.880371 9.57617 0.974121 5.87305 3.271 3.5293L3.36475 3.43555C5.80225 0.951172 9.73975 0.951172 12.1772 3.43555L13.4897 4.74805L14.7554 3.43555C17.1929 0.951172 21.1304 0.951172 23.5679 3.43555L23.6616 3.5293Z" fill="#0463FA"/>
</svg>
