<svg width="31" height="25" viewBox="0 0 31 25" fill="none" xmlns="http://www.w3.org/2000/svg">
<path d="M3.83496 3.86035C3.60059 3.86035 3.45996 3.71973 3.45996 3.48535V1.23535C3.45996 1.04785 3.60059 0.860352 3.83496 0.860352H13.585C13.7725 0.860352 13.96 1.04785 13.96 1.23535V3.48535C13.96 3.71973 13.7725 3.86035 13.585 3.86035H12.46V15.1104C12.46 17.2197 10.7725 18.8604 8.70996 18.8604C6.60059 18.8604 4.95996 17.2197 4.95996 15.1104V3.86035H3.83496ZM7.20996 3.86035V8.36035H10.21V3.86035H7.20996ZM29.71 21.8604C30.085 21.8604 30.46 22.2354 30.46 22.6104V24.1104C30.46 24.5322 30.085 24.8604 29.71 24.8604H1.20996C0.788086 24.8604 0.459961 24.5322 0.459961 24.1104V22.6104C0.459961 22.2354 0.788086 21.8604 1.20996 21.8604H29.71ZM17.335 3.86035C17.1006 3.86035 16.96 3.71973 16.96 3.48535V1.23535C16.96 1.04785 17.1006 0.860352 17.335 0.860352H27.085C27.2725 0.860352 27.46 1.04785 27.46 1.23535V3.48535C27.46 3.71973 27.2725 3.86035 27.085 3.86035H25.96V15.1104C25.96 17.2197 24.2725 18.8604 22.21 18.8604C20.1006 18.8604 18.46 17.2197 18.46 15.1104V3.86035H17.335ZM20.71 3.86035V8.36035H23.71V3.86035H20.71Z" fill="#0463FA"/>
</svg>
