<svg width="15" height="15" viewBox="0 0 15 15" fill="none" xmlns="http://www.w3.org/2000/svg">
<path d="M13.9897 5.86035C14.521 5.86035 14.9897 6.3291 14.9897 6.86035V7.86035C14.9897 8.42285 14.521 8.86035 13.9897 8.86035H9.48975V13.3604C9.48975 13.9229 9.021 14.3604 8.48975 14.3604H7.48975C6.92725 14.3604 6.48975 13.9229 6.48975 13.3604V8.86035H1.98975C1.42725 8.86035 0.989746 8.42285 0.989746 7.86035V6.86035C0.989746 6.3291 1.42725 5.86035 1.98975 5.86035H6.48975V1.36035C6.48975 0.829102 6.92725 0.360352 7.48975 0.360352H8.48975C9.021 0.360352 9.48975 0.829102 9.48975 1.36035V5.86035H13.9897Z" fill="#0463FA"/>
</svg>
