<svg width="31" height="25" viewBox="0 0 31 25" fill="none" xmlns="http://www.w3.org/2000/svg">
<path d="M11.7197 18.0605C12.0947 18.0605 12.4697 18.4355 12.4697 18.8105C12.4697 19.2324 12.0947 19.5605 11.7197 19.5605C11.2979 19.5605 10.9697 19.2324 10.9697 18.8105C10.9697 18.4355 11.2979 18.0605 11.7197 18.0605ZM19.2197 19.5605C18.7979 19.5605 18.4697 19.2324 18.4697 18.8105C18.4697 18.4355 18.7979 18.0605 19.2197 18.0605C19.5947 18.0605 19.9697 18.4355 19.9697 18.8105C19.9697 19.2324 19.5947 19.5605 19.2197 19.5605ZM29.7197 0.0605469C30.0947 0.0605469 30.4697 0.435547 30.4697 0.810547V2.31055C30.4697 2.73242 30.0947 3.06055 29.7197 3.06055H1.21973C0.797852 3.06055 0.469727 2.73242 0.469727 2.31055V0.810547C0.469727 0.435547 0.797852 0.0605469 1.21973 0.0605469H29.7197ZM29.7197 21.0605C30.0947 21.0605 30.4697 21.4355 30.4697 21.8105V23.3105C30.4697 23.7324 30.0947 24.0605 29.7197 24.0605H1.21973C0.797852 24.0605 0.469727 23.7324 0.469727 23.3105V21.8105C0.469727 21.4355 0.797852 21.0605 1.21973 21.0605H3.46973V4.56055H27.4697V21.0605H29.7197ZM22.9697 11.6855V10.9355C22.9697 10.748 22.7822 10.5605 22.5947 10.5605H16.2197V9.06055H21.0947C21.2822 9.06055 21.4697 8.91992 21.4697 8.68555V7.93555C21.4697 7.74805 21.2822 7.56055 21.0947 7.56055H16.2197V6.43555C16.2197 6.24805 16.0322 6.06055 15.8447 6.06055H15.0947C14.8604 6.06055 14.7197 6.24805 14.7197 6.43555V7.56055H9.84473C9.61035 7.56055 9.46973 7.74805 9.46973 7.93555V8.68555C9.46973 8.91992 9.61035 9.06055 9.84473 9.06055H14.7197V10.5605H8.34473C8.11035 10.5605 7.96973 10.748 7.96973 10.9355V11.6855C7.96973 11.9199 8.11035 12.0605 8.34473 12.0605H14.7197V13.5605H9.84473C9.61035 13.5605 9.46973 13.748 9.46973 13.9355V14.6855C9.46973 14.9199 9.61035 15.0605 9.84473 15.0605H14.7197V16.5605H11.7197C10.4541 16.5605 9.46973 17.5918 9.46973 18.8105C9.46973 20.0762 10.4541 21.0605 11.7197 21.0605C12.9385 21.0605 13.9697 20.0762 13.9697 18.8105V18.0605H16.9697V18.8105C16.9697 20.0762 17.9541 21.0605 19.2197 21.0605C20.4385 21.0605 21.4697 20.0762 21.4697 18.8105C21.4697 17.5918 20.4385 16.5605 19.2197 16.5605H16.2197V15.0605H21.0947C21.2822 15.0605 21.4697 14.9199 21.4697 14.6855V13.9355C21.4697 13.748 21.2822 13.5605 21.0947 13.5605H16.2197V12.0605H22.5947C22.7822 12.0605 22.9697 11.9199 22.9697 11.6855Z" fill="#0463FA"/>
</svg>
