<svg width="23" height="25" viewBox="0 0 23 25" fill="none" xmlns="http://www.w3.org/2000/svg">
<path d="M21.7354 5.40723C22.251 7.3291 21.7822 9.2041 20.751 10.5635C19.6729 12.0635 19.2041 13.7979 19.0635 15.626C18.8291 17.8291 18.5479 20.0322 18.0791 22.1885L17.7041 23.7822C17.5635 24.4385 16.9541 24.8604 16.2979 24.8604C15.6416 24.8604 15.0791 24.4385 14.9385 23.7822L13.2979 17.3135C13.1104 16.4697 12.3135 15.8604 11.4229 15.8604C10.5791 15.8604 9.78223 16.4697 9.59473 17.3135L7.9541 23.7822C7.81348 24.4385 7.25098 24.8604 6.59473 24.8604C5.93848 24.8604 5.3291 24.4385 5.18848 23.7822L4.81348 22.1885C4.34473 20.0322 4.06348 17.8291 3.8291 15.626C3.68848 13.7979 3.21973 12.0635 2.1416 10.5635C1.11035 9.2041 0.641602 7.3291 1.15723 5.40723C1.67285 3.29785 3.36035 1.56348 5.46973 1.00098C6.54785 0.719727 7.62598 0.954102 8.56348 1.46973L13.2979 4.5166C13.6729 4.75098 14.0947 4.61035 14.3291 4.28223C14.5635 3.9541 14.4697 3.48535 14.0947 3.25098L12.7822 2.40723C12.9229 2.31348 13.1104 2.2666 13.251 2.12598C14.4697 1.23535 15.9229 0.625977 17.4229 1.00098C19.5322 1.56348 21.2197 3.29785 21.7354 5.40723Z" fill="#0463FA"/>
</svg>
